# xmcd
# 
# Track frame offsets:
#     150
#     27271
#     42084
#     58360
#     78210
#     102631
#     130062
#     156845
#     179335
#     202879
#     222234
#     244685
#     264442
#     285680
#     302661
#     327795
# 
# Disc length: 4717
# 
# Revision: 1
# Processed by: cddbd v1.5.2PL0 Copyright (c) Steve Scherf et al.
# Submitted via: fre:ac v1.0.31
# 
DISCID=df126b10
DTITLE=いきものがかり - 超いきものばかり ～てんねん記念メンバーズBESTセレクション～ Disc2
DYEAR=2016
DGENRE=J-Pop
TTITLE0=ありがとう
TTITLE1=じょいふる
TTITLE2=ブルーバード
TTITLE3=いつだって僕らは
TTITLE4=翼
TTITLE5=歩いていこう
TTITLE6=YELL
TTITLE7=GOLDEN GIRL
TTITLE8=Good Morning
TTITLE9=Sweet! Sweet! Music!
TTITLE10=1 2 3 ～恋がはじまる～
TTITLE11=東京
TTITLE12=恋詩
TTITLE13=熱情のスペクトラム
TTITLE14=マイステージ
TTITLE15=会いにいくよ
EXTD=
EXTT0=
EXTT1=
EXTT2=
EXTT3=
EXTT4=
EXTT5=
EXTT6=
EXTT7=
EXTT8=
EXTT9=
EXTT10=
EXTT11=
EXTT12=
EXTT13=
EXTT14=
EXTT15=
PLAYORDER=
